solid cube.stl
facet normal -1.0 0.0 0.0
 outer loop
  vertex -11.0 -14.0 20.0
  vertex -11.0 -14.0 0.0
  vertex -11.0 -34.0 0.0
 endloop
endfacet
facet normal -1.0 0.0 0.0
 outer loop
  vertex -11.0 -14.0 20.0
  vertex -11.0 -34.0 0.0
  vertex -11.0 -34.0 20.0
 endloop
endfacet
facet normal 0.0 1.0 0.0
 outer loop
  vertex 9.0 -14.0 20.0
  vertex 9.0 -14.0 0.0
  vertex -11.0 -14.0 0.0
 endloop
endfacet
facet normal 0.0 1.0 0.0
 outer loop
  vertex 9.0 -14.0 20.0
  vertex -11.0 -14.0 0.0
  vertex -11.0 -14.0 20.0
 endloop
endfacet
facet normal 0.0 0.0 -1.0
 outer loop
  vertex 9.0 -34.0 0.0
  vertex -11.0 -34.0 0.0
  vertex -11.0 -14.0 0.0
 endloop
endfacet
facet normal 0.0 0.0 -1.0
 outer loop
  vertex 9.0 -34.0 0.0
  vertex -11.0 -14.0 0.0
  vertex 9.0 -14.0 0.0
 endloop
endfacet
facet normal 0.0 0.0 1.0
 outer loop
  vertex 9.0 -14.0 20.0
  vertex -11.0 -14.0 20.0
  vertex -11.0 -34.0 20.0
 endloop
endfacet
facet normal 0.0 0.0 1.0
 outer loop
  vertex 9.0 -14.0 20.0
  vertex -11.0 -34.0 20.0
  vertex 9.0 -34.0 20.0
 endloop
endfacet
facet normal 1.0 0.0 0.0
 outer loop
  vertex 9.0 -34.0 20.0
  vertex 9.0 -34.0 0.0
  vertex 9.0 -14.0 0.0
 endloop
endfacet
facet normal 1.0 0.0 0.0
 outer loop
  vertex 9.0 -34.0 20.0
  vertex 9.0 -14.0 0.0
  vertex 9.0 -14.0 20.0
 endloop
endfacet
facet normal 0.0 -1.0 0.0
 outer loop
  vertex -11.0 -34.0 20.0
  vertex -11.0 -34.0 0.0
  vertex 9.0 -34.0 0.0
 endloop
endfacet
facet normal 0.0 -1.0 0.0
 outer loop
  vertex -11.0 -34.0 20.0
  vertex 9.0 -34.0 0.0
  vertex 9.0 -34.0 20.0
 endloop
endfacet
endsolid cube.stl
